<?xml version="1.0" encoding="UTF-8" standalone="no"?>
<!DOCTYPE svg PUBLIC "-//W3C//DTD SVG 1.1//EN" "http://www.w3.org/Graphics/SVG/1.1/DTD/svg11.dtd">
<svg width="100%" height="100%" viewBox="0 0 111 179" version="1.1" xmlns="http://www.w3.org/2000/svg" xmlns:xlink="http://www.w3.org/1999/xlink" xml:space="preserve" xmlns:serif="http://www.serif.com/" style="fill-rule:evenodd;clip-rule:evenodd;stroke-linejoin:round;stroke-miterlimit:2;">
    <g transform="matrix(1,0,0,1,-71,-233)">
        <g id="acorn">
            <g transform="matrix(1.18003,0,0,0.410721,-14.9261,192)">
                <rect x="82.908" y="325.821" width="73.653" height="90.844" style="fill:rgb(90,171,255);"/>
            </g>
            <g transform="matrix(1,0,0,-1,0,784.722)">
                <path d="M169.82,416.574L82.908,416.574C82.908,392.574 102.364,373.118 126.364,373.118C150.364,373.118 169.82,392.574 169.82,416.574Z" style="fill:rgb(255,207,110);"/>
            </g>
            <g transform="matrix(1.26812,0,0,1.26812,-33.8804,-207.273)">
                <path d="M169.82,416.574L82.908,416.574C82.908,392.574 102.364,373.118 126.364,373.118C150.364,373.118 169.82,392.574 169.82,416.574Z" style="fill:rgb(255,207,110);"/>
            </g>
            <g transform="matrix(0.947662,0.319276,-0.380473,1.1293,91.4315,-44.6172)">
                <rect x="126.364" y="210.318" width="12.443" height="23.123" style="fill:rgb(90,171,255);"/>
            </g>
        </g>
    </g>
</svg>
