<?xml version="1.0" encoding="UTF-8" standalone="no"?>
<!DOCTYPE svg PUBLIC "-//W3C//DTD SVG 1.1//EN" "http://www.w3.org/Graphics/SVG/1.1/DTD/svg11.dtd">
<svg width="100%" height="100%" viewBox="0 0 684 141" version="1.1" xmlns="http://www.w3.org/2000/svg" xmlns:xlink="http://www.w3.org/1999/xlink" xml:space="preserve" xmlns:serif="http://www.serif.com/" style="fill-rule:evenodd;clip-rule:evenodd;stroke-linejoin:round;stroke-miterlimit:2;">
    <g transform="matrix(1,0,0,1,-139,-440)">
        <g id="ryba">
            <g transform="matrix(-0.278919,-0.00380102,-0.00380102,0.278919,243.938,386.823)">
                <path d="M371.911,276.391C371.911,348 313.773,406.137 242.165,406.137C170.556,406.137 112.419,348 112.419,276.391L371.911,276.391Z" style="fill:white;"/>
            </g>
            <g transform="matrix(-0.862406,0.0364562,0.0364562,0.862406,909.09,198.398)">
                <path d="M371.911,276.391C371.911,348 313.773,406.137 242.165,406.137C170.556,406.137 112.419,348 112.419,276.391L371.911,276.391Z" style="fill:white;"/>
            </g>
            <g transform="matrix(-0.88137,0,0,0.88137,1032.71,165.874)">
                <path d="M505.617,322.187L469.375,444.062L926.606,336.4L505.617,322.187Z" style="fill:white;"/>
            </g>
            <g transform="matrix(0.0595982,-0.0269701,0.380414,0.840632,393.777,403.691)">
                <rect x="233.521" y="188.976" width="516.536" height="28.796" style="fill:white;"/>
            </g>
        </g>
    </g>
</svg>
