<?xml version="1.0" encoding="UTF-8" standalone="no"?>
<!DOCTYPE svg PUBLIC "-//W3C//DTD SVG 1.1//EN" "http://www.w3.org/Graphics/SVG/1.1/DTD/svg11.dtd">
<svg width="100%" height="100%" viewBox="0 0 401 548" version="1.1" xmlns="http://www.w3.org/2000/svg" xmlns:xlink="http://www.w3.org/1999/xlink" xml:space="preserve" xmlns:serif="http://www.serif.com/" style="fill-rule:evenodd;clip-rule:evenodd;stroke-linejoin:round;stroke-miterlimit:2;">
    <g transform="matrix(1,0,0,1,-281,-161)">
        <g id="meduza">
            <g transform="matrix(-0.331945,-0.639036,0.425455,-0.221001,512.341,863.41)">
                <rect x="233.521" y="188.976" width="516.536" height="28.796" style="fill:white;"/>
            </g>
            <g transform="matrix(-0.402918,-0.775669,0.475126,-0.246802,624.081,936.734)">
                <rect x="233.521" y="188.976" width="516.536" height="28.796" style="fill:white;"/>
            </g>
            <g transform="matrix(-0.381355,-0.734158,0.420991,-0.218682,678.801,866.073)">
                <rect x="233.521" y="188.976" width="516.536" height="28.796" style="fill:white;"/>
            </g>
            <g transform="matrix(-0.897635,0.440739,-0.440739,-0.897635,750.631,432.217)">
                <path d="M371.911,276.391C371.911,348 313.773,406.137 242.165,406.137C170.556,406.137 112.419,348 112.419,276.391L371.911,276.391Z" style="fill:white;"/>
            </g>
        </g>
    </g>
</svg>
